# xmcd
# 
# Track frame offsets:
#   150
#   17825
#   35215
#   62481
#   77819
#   96982
#   113538
#   127865
#   142756
#   161634
#   180335
#   197638
#   213021
#   235076
#   255406
#   271842
#   290774
# 
# Disc length: 4101 seconds
# 
# Revision: 4
# Processed by: cddbd v1.5.2PL0 Copyright (c) Steve Scherf et al.
# Submitted via: Synapstar 1.0 
# 
DISCID=df100311
DTITLE=Various Artist - Chartbuster 5134-01
DYEAR=2009
DGENRE=Country
TTITLE0=Carrie Underwood - Cowboy Casanova
TTITLE1=Keith Urban - Only You Can Love Me This Way
TTITLE2=Brad Paisley - Wecome To The Future
TTITLE3=Josh Turner - Why Don't We Just Dance
TTITLE4=Rascal Flatts - Summer Nights
TTITLE5=Kellie Pickler - Don't You Know How Much I Loved You
TTITLE6=Tracy Lawrence - Up To Him
TTITLE7=Jake Owen - Eight Second Ride
TTITLE8=Luke Bryan - Do I
TTITLE9=Lady Autebellum - Need You Now
TTITLE10=Pat Green - What I'm For
TTITLE11=Tim McGraw - It's A Business Doing Pleasure With You
TTITLE12=Jamey Johnson - High Cost Of Living
TTITLE13=Zac Brown Band - Toes
TTITLE14=Heidi Newfield - What Am I Waiting For
TTITLE15=Dierks Bentley - I Wanna Make You Close Your Eyes
TTITLE16=Chris Young - Gettin' You Home
EXTD=MediaType: Karaoke CD+G Producer: Chartbuster
EXTT0=
EXTT1=
EXTT2=
EXTT3=
EXTT4=
EXTT5=
EXTT6=
EXTT7=
EXTT8=
EXTT9=
EXTT10=
EXTT11=
EXTT12=
EXTT13=
EXTT14=
EXTT15=
EXTT16=
PLAYORDER=
